<?xml version="1.0" standalone="no"?><svg xmlns="http://www.w3.org/2000/svg" viewBox="0 0 1440 320"><path fill="#7FC7D9" fill-opacity="1" d="M0,32L6.2,69.3C12.3,107,25,181,37,213.3C49.2,245,62,235,74,197.3C86.2,160,98,96,111,74.7C123.1,53,135,75,148,122.7C160,171,172,245,185,277.3C196.9,309,209,299,222,272C233.8,245,246,203,258,186.7C270.8,171,283,181,295,197.3C307.7,213,320,235,332,229.3C344.6,224,357,192,369,165.3C381.5,139,394,117,406,106.7C418.5,96,431,96,443,80C455.4,64,468,32,480,64C492.3,96,505,192,517,208C529.2,224,542,160,554,112C566.2,64,578,32,591,37.3C603.1,43,615,85,628,101.3C640,117,652,107,665,90.7C676.9,75,689,53,702,64C713.8,75,726,117,738,133.3C750.8,149,763,139,775,128C787.7,117,800,107,812,138.7C824.6,171,837,245,849,272C861.5,299,874,277,886,245.3C898.5,213,911,171,923,176C935.4,181,948,235,960,224C972.3,213,985,139,997,138.7C1009.2,139,1022,213,1034,218.7C1046.2,224,1058,160,1071,117.3C1083.1,75,1095,53,1108,74.7C1120,96,1132,160,1145,181.3C1156.9,203,1169,181,1182,149.3C1193.8,117,1206,75,1218,80C1230.8,85,1243,139,1255,181.3C1267.7,224,1280,256,1292,245.3C1304.6,235,1317,181,1329,138.7C1341.5,96,1354,64,1366,58.7C1378.5,53,1391,75,1403,117.3C1415.4,160,1428,224,1434,256L1440,288L1440,320L1433.8,320C1427.7,320,1415,320,1403,320C1390.8,320,1378,320,1366,320C1353.8,320,1342,320,1329,320C1316.9,320,1305,320,1292,320C1280,320,1268,320,1255,320C1243.1,320,1231,320,1218,320C1206.2,320,1194,320,1182,320C1169.2,320,1157,320,1145,320C1132.3,320,1120,320,1108,320C1095.4,320,1083,320,1071,320C1058.5,320,1046,320,1034,320C1021.5,320,1009,320,997,320C984.6,320,972,320,960,320C947.7,320,935,320,923,320C910.8,320,898,320,886,320C873.8,320,862,320,849,320C836.9,320,825,320,812,320C800,320,788,320,775,320C763.1,320,751,320,738,320C726.2,320,714,320,702,320C689.2,320,677,320,665,320C652.3,320,640,320,628,320C615.4,320,603,320,591,320C578.5,320,566,320,554,320C541.5,320,529,320,517,320C504.6,320,492,320,480,320C467.7,320,455,320,443,320C430.8,320,418,320,406,320C393.8,320,382,320,369,320C356.9,320,345,320,332,320C320,320,308,320,295,320C283.1,320,271,320,258,320C246.2,320,234,320,222,320C209.2,320,197,320,185,320C172.3,320,160,320,148,320C135.4,320,123,320,111,320C98.5,320,86,320,74,320C61.5,320,49,320,37,320C24.6,320,12,320,6,320L0,320Z"></path></svg>