<?xml version="1.0" standalone="no"?><svg xmlns="http://www.w3.org/2000/svg" viewBox="0 0 1440 320"><path fill="#7FC7D9" fill-opacity="1" d="M0,64L45,288L90,224L135,32L180,0L225,128L270,256L315,64L360,160L405,128L450,32L495,320L540,160L585,256L630,320L675,224L720,224L765,64L810,96L855,128L900,64L945,64L990,224L1035,96L1080,96L1125,128L1170,32L1215,160L1260,256L1305,0L1350,256L1395,224L1440,160L1440,320L1395,320L1350,320L1305,320L1260,320L1215,320L1170,320L1125,320L1080,320L1035,320L990,320L945,320L900,320L855,320L810,320L765,320L720,320L675,320L630,320L585,320L540,320L495,320L450,320L405,320L360,320L315,320L270,320L225,320L180,320L135,320L90,320L45,320L0,320Z"></path></svg>